<svg width="25" height="25" viewBox="0 0 25 25" fill="none" xmlns="http://www.w3.org/2000/svg">
<g clip-path="url(#clip0_2_1204)">
<path d="M9.7947 6.41555C9.13143 6.44684 8.67848 6.55269 8.28251 6.70828C7.8727 6.86799 7.52536 7.08231 7.17976 7.42916C6.83416 7.776 6.62134 8.1236 6.46275 8.53403C6.30928 8.93087 6.2053 9.38419 6.176 10.0478C6.1467 10.7115 6.14022 10.9248 6.14346 12.6176C6.1467 14.3105 6.15418 14.5227 6.18635 15.1877C6.21801 15.8509 6.32349 16.3037 6.47908 16.6998C6.63904 17.1096 6.85311 17.4568 7.20008 17.8025C7.54705 18.1482 7.8944 18.3606 8.30583 18.5194C8.70229 18.6726 9.15574 18.7771 9.81926 18.8062C10.4828 18.8352 10.6964 18.8419 12.3887 18.8387C14.081 18.8355 14.2941 18.828 14.959 18.7964C15.6239 18.7649 16.0743 18.6587 16.4706 18.5038C16.8804 18.3435 17.2278 18.1298 17.5733 17.7827C17.9188 17.4356 18.1315 17.0878 18.29 16.6771C18.4436 16.2806 18.5479 15.8272 18.5767 15.1641C18.6058 14.4987 18.6126 14.2863 18.6094 12.5937C18.6061 10.9011 18.5985 10.6889 18.567 10.0241C18.5354 9.35938 18.4298 8.90793 18.2744 8.51159C18.1142 8.10178 17.9003 7.75481 17.5535 7.40883C17.2066 7.06286 16.8586 6.85029 16.448 6.6922C16.0513 6.53872 15.5981 6.43412 14.9346 6.40545C14.271 6.37677 14.0575 6.36942 12.3645 6.37266C10.6715 6.3759 10.4596 6.38313 9.7947 6.41555ZM9.86751 17.6847C9.25972 17.6583 8.9297 17.5573 8.70977 17.4728C8.41853 17.3605 8.21107 17.2249 7.99189 17.0078C7.77272 16.7908 7.63807 16.5826 7.52436 16.292C7.43896 16.072 7.3361 15.7424 7.30768 15.1346C7.27676 14.4777 7.27027 14.2804 7.26666 12.6161C7.26304 10.9519 7.2694 10.7549 7.2982 10.0977C7.32413 9.49041 7.42574 9.16002 7.51015 8.94022C7.62236 8.64861 7.7575 8.44152 7.97506 8.22247C8.19262 8.00341 8.40021 7.86851 8.69107 7.75481C8.91075 7.66903 9.24039 7.56705 9.84794 7.53812C10.5053 7.50695 10.7023 7.50072 12.3664 7.4971C14.0304 7.49349 14.2279 7.49972 14.8856 7.52865C15.4929 7.55508 15.8234 7.65569 16.0429 7.7406C16.3343 7.8528 16.5416 7.98758 16.7607 8.20551C16.9797 8.42344 17.1148 8.63028 17.2285 8.92177C17.3144 9.14082 17.4164 9.47034 17.445 10.0783C17.4763 10.7357 17.4834 10.9328 17.4864 12.5967C17.4894 14.2606 17.4836 14.4582 17.4548 15.1151C17.4282 15.7229 17.3275 16.0531 17.2428 16.2733C17.1306 16.5644 16.9953 16.772 16.7776 16.9909C16.56 17.2098 16.3526 17.3447 16.0616 17.4584C15.8422 17.5441 15.5122 17.6463 14.9051 17.6752C14.2477 17.7061 14.0507 17.7126 12.3861 17.7162C10.7214 17.7199 10.525 17.7131 9.86763 17.6847M14.9494 9.27398C14.9496 9.42194 14.9938 9.5665 15.0762 9.68939C15.1586 9.81227 15.2756 9.90796 15.4124 9.96434C15.5492 10.0207 15.6996 10.0353 15.8447 10.0061C15.9898 9.97702 16.1229 9.90553 16.2274 9.80071C16.3318 9.69589 16.4028 9.56246 16.4314 9.41729C16.46 9.27212 16.4449 9.12173 16.388 8.98514C16.3311 8.84855 16.235 8.7319 16.1118 8.64993C15.9886 8.56797 15.8439 8.52438 15.696 8.52468C15.4976 8.52507 15.3075 8.60423 15.1675 8.74475C15.0275 8.88526 14.9491 9.07562 14.9494 9.27398ZM9.17569 12.6119C9.17918 14.3798 10.6149 15.8097 12.3825 15.8063C14.15 15.803 15.5809 14.3673 15.5775 12.5994C15.5741 10.8315 14.138 9.40127 12.3702 9.40476C10.6025 9.40825 9.17232 10.8443 9.17569 12.6119ZM10.2985 12.6097C10.2977 12.1987 10.4188 11.7967 10.6464 11.4545C10.8741 11.1124 11.1981 10.8454 11.5775 10.6873C11.9569 10.5293 12.3746 10.4873 12.7778 10.5667C13.1811 10.6461 13.5517 10.8433 13.8429 11.1333C14.1341 11.4233 14.3327 11.7932 14.4137 12.1961C14.4947 12.5991 14.4544 13.0169 14.2978 13.397C14.1413 13.777 13.8756 14.102 13.5343 14.331C13.1931 14.56 12.7916 14.6827 12.3806 14.6835C12.1077 14.6841 11.8374 14.6309 11.585 14.527C11.3327 14.4231 11.1033 14.2705 10.91 14.0779C10.7166 13.8853 10.5631 13.6565 10.4582 13.4046C10.3533 13.1527 10.299 12.8826 10.2985 12.6097Z" fill="#111D15"/>
</g>
<defs>
<clipPath id="clip0_2_1204">
<rect width="12.4675" height="12.4675" fill="white" transform="translate(6.1427 6.37195)"/>
</clipPath>
</defs>
</svg>
