<svg width="26" height="26" viewBox="0 0 26 26" fill="none" xmlns="http://www.w3.org/2000/svg">
<path d="M7.61239 13.1889C8.65016 15.332 10.3831 17.0605 12.5288 18.0928C12.6871 18.1677 12.8621 18.2001 13.0368 18.1869C13.2114 18.1736 13.3795 18.1151 13.5247 18.0171L16.6762 15.9119C16.8155 15.8174 16.9764 15.7598 17.1439 15.7444C17.3114 15.729 17.4802 15.7562 17.6343 15.8236L23.534 18.3575C23.7356 18.4414 23.9041 18.5893 24.0134 18.7783C24.1228 18.9674 24.1669 19.1872 24.1391 19.4038C23.9521 20.8633 23.2397 22.2046 22.1353 23.1768C21.0308 24.149 19.61 24.6855 18.1386 24.6858C13.5916 24.6858 9.23082 22.8795 6.01562 19.6643C2.80042 16.4491 0.994141 12.0884 0.994141 7.54138C0.994472 6.06998 1.53093 4.64912 2.50313 3.54466C3.47534 2.4402 4.81667 1.72782 6.27613 1.54083C6.49276 1.51301 6.71252 1.55716 6.90158 1.6665C7.09065 1.77584 7.23852 1.94429 7.32245 2.14593L9.85629 8.05823C9.92218 8.20994 9.94975 8.37553 9.93656 8.54041C9.92337 8.70529 9.86983 8.86439 9.78065 9.00369L7.67542 12.2057C7.58169 12.3505 7.52668 12.5169 7.51565 12.6891C7.50461 12.8612 7.53792 13.0333 7.61239 13.1889V13.1889Z" stroke="#DEAA27" stroke-width="2" stroke-linecap="round" stroke-linejoin="round"/>
</svg>
