<svg width="21" height="27" viewBox="0 0 21 27" fill="none" xmlns="http://www.w3.org/2000/svg">
<path d="M10.7503 14.6521C12.7892 14.6521 14.4421 12.9992 14.4421 10.9603C14.4421 8.92141 12.7892 7.26855 10.7503 7.26855C8.71145 7.26855 7.05859 8.92141 7.05859 10.9603C7.05859 12.9992 8.71145 14.6521 10.7503 14.6521Z" stroke="#181818" stroke-width="2" stroke-linecap="round" stroke-linejoin="round"/>
<path d="M19.9783 10.9603C19.9783 19.2668 10.7489 25.7274 10.7489 25.7274C10.7489 25.7274 1.51953 19.2668 1.51953 10.9603C1.51953 8.51256 2.49191 6.16503 4.22276 4.43418C5.9536 2.70334 8.30113 1.73096 10.7489 1.73096C13.1967 1.73096 15.5442 2.70334 17.2751 4.43418C19.0059 6.16503 19.9783 8.51256 19.9783 10.9603V10.9603Z" stroke="#181818" stroke-width="2" stroke-linecap="round" stroke-linejoin="round"/>
</svg>
