<svg width="19" height="18" viewBox="0 0 19 18" fill="none" xmlns="http://www.w3.org/2000/svg">
<path d="M5.95857 9.05403C6.70975 10.6053 7.96412 11.8564 9.5173 12.6036C9.63187 12.6579 9.75859 12.6814 9.88499 12.6718C10.0114 12.6622 10.1331 12.6198 10.2382 12.5489L12.5194 11.025C12.6202 10.9567 12.7367 10.9149 12.8579 10.9038C12.9792 10.8926 13.1013 10.9123 13.2129 10.9611L17.4834 12.7953C17.6293 12.856 17.7513 12.963 17.8304 13.0999C17.9096 13.2368 17.9415 13.3958 17.9214 13.5526C17.786 14.6091 17.2704 15.58 16.4709 16.2837C15.6715 16.9874 14.643 17.3757 13.5779 17.376C10.2866 17.376 7.13007 16.0685 4.80275 13.7412C2.47544 11.4139 1.16797 8.25737 1.16797 4.96605C1.16821 3.90098 1.55652 2.8725 2.26025 2.07304C2.96398 1.27358 3.93489 0.757927 4.99132 0.622575C5.14812 0.602433 5.3072 0.634395 5.44405 0.713539C5.58091 0.792683 5.68795 0.91462 5.74869 1.06057L7.58281 5.34017C7.6305 5.44999 7.65046 5.56985 7.64091 5.6892C7.63136 5.80854 7.59261 5.92371 7.52806 6.02455L6.00419 8.34228C5.93635 8.44711 5.89653 8.56759 5.88854 8.69221C5.88055 8.81682 5.90466 8.9414 5.95857 9.05403V9.05403Z" stroke="#0D0D0D" stroke-linecap="round" stroke-linejoin="round"/>
</svg>
