<svg width="42" height="41" viewBox="0 0 42 41" fill="none" xmlns="http://www.w3.org/2000/svg">
<path fill-rule="evenodd" clip-rule="evenodd" d="M0.720947 0.915039H8.01813H9.72605L10.061 2.5228L11.0138 7.09618H39.3531H41.8122L41.4081 9.42498L39.2618 21.7872L38.9716 23.4584H37.2068H14.4226L15.3062 27.7H37.2068V31.7H13.5983H11.8904L11.5554 30.0922L7.26297 9.4884L9.30586 9.09618L7.26297 9.4884L6.3102 4.91504H0.720947V0.915039ZM11.8471 11.0962L13.5893 19.4584H35.442L36.8937 11.0962H11.8471ZM19.2129 36.6778C19.2129 38.5186 17.6624 40.007 15.7449 40.007C13.8273 40.007 12.2769 38.5186 12.2769 36.6778C12.2769 34.837 13.8273 33.3876 15.7449 33.3876C17.6624 33.3876 19.2129 34.837 19.2129 36.6778ZM32.9162 40.007C34.8337 40.007 36.3841 38.5186 36.3841 36.6778C36.3841 34.837 34.8337 33.3876 32.9162 33.3876C30.9985 33.3876 29.4481 34.837 29.4481 36.6778C29.4481 38.5186 30.9985 40.007 32.9162 40.007Z" fill="#888888"/>
</svg>
