<svg width="20" height="25" viewBox="0 0 20 25" fill="none" xmlns="http://www.w3.org/2000/svg">
<g clip-path="url(#clip0_2_414)">
<path d="M16.037 13.4839C16.037 13.5849 15.8854 16.5663 19.17 18.1328C18.5636 20.0025 16.4413 24.1461 13.9652 24.1461C12.5503 24.1461 11.7418 23.2365 10.1248 23.2365C8.45727 23.2365 7.5477 24.1461 6.2844 24.1461C3.85887 24.2472 1.5344 19.6993 0.877491 17.8296C0.372172 16.4147 0.170044 15.0504 0.170044 13.7365C0.170044 9.23919 3.15142 7.06632 5.98121 7.01579C7.34557 7.01579 9.06366 7.97589 9.82164 7.97589C10.529 7.97589 12.4998 6.81366 14.3189 6.96525C16.1886 7.11685 17.6035 7.8243 18.5636 9.18866C16.8961 10.2498 16.037 11.6142 16.037 13.4839ZM13.2072 5.19664C12.1966 6.35887 10.9838 7.01579 9.67004 6.91472C9.56898 5.55036 10.0743 4.28706 10.9838 3.27642C11.7923 2.36685 13.2072 1.60888 14.42 1.50781C14.42 2.06366 14.5716 3.57962 13.2072 5.19664Z" fill="white"/>
</g>
<defs>
<clipPath id="clip0_2_414">
<rect width="19" height="24" fill="white" transform="translate(0.170044 0.969727)"/>
</clipPath>
</defs>
</svg>
