<svg width="16" height="14" viewBox="0 0 16 14" fill="none" xmlns="http://www.w3.org/2000/svg">
<g clip-path="url(#clip0_2_177)">
<path d="M1.35742 6.78812H13.3681L8.769 2.40888C8.52818 2.17956 8.51885 1.79857 8.74823 1.55782C8.97731 1.31737 9.35841 1.30774 9.59953 1.53706L14.8519 6.53864C15.0791 6.76614 15.2046 7.06829 15.2046 7.39C15.2046 7.71139 15.0791 8.01384 14.8413 8.25127L9.59923 13.2427C9.48273 13.3536 9.33342 13.4087 9.18411 13.4087C9.02517 13.4087 8.86623 13.3461 8.74793 13.2219C8.51855 12.9812 8.52788 12.6004 8.7687 12.3711L13.387 7.99187H1.35742C1.02509 7.99187 0.755371 7.72223 0.755371 7.39C0.755371 7.05776 1.02509 6.78812 1.35742 6.78812Z" fill="#1A1A1A"/>
</g>
<defs>
<clipPath id="clip0_2_177">
<rect width="15" height="12.84" fill="white" transform="translate(0.47998 0.969727)"/>
</clipPath>
</defs>
</svg>
