<svg width="17" height="17" viewBox="0 0 17 17" fill="none" xmlns="http://www.w3.org/2000/svg">
<path d="M16.44 8.35686C16.44 7.96575 16.3067 7.63686 16.04 7.37019C15.7733 7.10353 15.4444 6.97019 15.0533 6.97019H2.94667V2.65019C2.94667 2.29464 3.07111 1.99242 3.32 1.74353C3.49778 1.56575 3.70222 1.45908 3.93334 1.42353C4.16445 1.38797 4.40445 1.40575 4.65334 1.47686C4.33334 1.97464 4.20889 2.52575 4.28 3.13019C4.35111 3.73464 4.6 4.25019 5.02667 4.67686L5.13334 4.83686C5.24 4.90797 5.35556 4.94353 5.48 4.94353C5.60445 4.94353 5.70222 4.90797 5.77334 4.83686L8.81334 1.79686C8.92 1.69019 8.97334 1.57464 8.97334 1.45019C8.97334 1.32575 8.92 1.21019 8.81334 1.10353L8.70667 0.99686C8.24445 0.534637 7.68445 0.285748 7.02667 0.250193C6.36889 0.214638 5.79111 0.392415 5.29334 0.783526C4.86667 0.534637 4.40445 0.43686 3.90667 0.490193C3.40889 0.543527 2.98222 0.747972 2.62667 1.10353C2.2 1.53019 1.98667 2.04575 1.98667 2.65019V6.97019H1.82667C1.43556 6.97019 1.10667 7.10353 0.840002 7.37019C0.573336 7.63686 0.440002 7.96575 0.440002 8.35686C0.440002 8.67686 0.528891 8.95242 0.706669 9.18353C0.884447 9.41464 1.09778 9.58353 1.34667 9.69019V10.7035C1.34667 11.5569 1.57778 12.3391 2.04 13.0502C2.50222 13.7613 3.08889 14.3124 3.8 14.7035L3.37334 15.5569C3.30222 15.6991 3.29334 15.8235 3.34667 15.9302C3.4 16.0369 3.48 16.1257 3.58667 16.1969C3.69334 16.268 3.80889 16.2769 3.93334 16.2235C4.05778 16.1702 4.15556 16.0902 4.22667 15.9835L4.70667 15.0235C5.06222 15.0946 5.43556 15.1302 5.82667 15.1302H11.0533C11.4444 15.1302 11.8178 15.0946 12.1733 15.0235L12.6533 15.9835C12.7244 16.0902 12.8222 16.1702 12.9467 16.2235C13.0711 16.2769 13.1867 16.268 13.2933 16.1969C13.4 16.1257 13.48 16.0369 13.5333 15.9302C13.5867 15.8235 13.5778 15.6991 13.5067 15.5569L13.08 14.7035C13.7911 14.3124 14.3778 13.7613 14.84 13.0502C15.3022 12.3391 15.5333 11.5569 15.5333 10.7035V9.69019C15.7822 9.58353 15.9956 9.41464 16.1733 9.18353C16.3511 8.95242 16.44 8.67686 16.44 8.35686ZM7.8 1.47686L5.50667 3.82353C5.25778 3.46797 5.15111 3.09464 5.18667 2.70353C5.22222 2.31242 5.38222 1.97464 5.66667 1.69019C5.95111 1.40575 6.29778 1.24575 6.70667 1.21019C7.11556 1.17464 7.48 1.26353 7.8 1.47686ZM1.82667 7.93019H15.0533C15.16 7.93019 15.2578 7.97464 15.3467 8.06353C15.4356 8.15242 15.48 8.25908 15.48 8.38353C15.48 8.50797 15.4356 8.61464 15.3467 8.70353C15.2578 8.79242 15.16 8.83686 15.0533 8.83686H1.82667C1.72 8.83686 1.62222 8.79242 1.53334 8.70353C1.44445 8.61464 1.4 8.50797 1.4 8.38353C1.4 8.25908 1.44445 8.15242 1.53334 8.06353C1.62222 7.97464 1.72 7.93019 1.82667 7.93019ZM14.5733 10.7035C14.5733 11.3435 14.4133 11.9302 14.0933 12.4635C13.7733 12.9969 13.3467 13.4235 12.8133 13.7435C12.28 14.0635 11.6933 14.2235 11.0533 14.2235H5.82667C5.18667 14.2235 4.6 14.0635 4.06667 13.7435C3.53334 13.4235 3.10667 12.9969 2.78667 12.4635C2.46667 11.9302 2.30667 11.3435 2.30667 10.7035V9.79686H14.5733V10.7035ZM7.21334 4.99686C7.21334 5.13908 7.25778 5.25464 7.34667 5.34353C7.43556 5.43242 7.54222 5.47686 7.66667 5.47686C7.79111 5.47686 7.89778 5.43242 7.98667 5.34353C8.07556 5.25464 8.12 5.13908 8.12 4.99686C8.12 4.85464 8.07556 4.73908 7.98667 4.65019C7.89778 4.5613 7.79111 4.51686 7.66667 4.51686C7.54222 4.51686 7.43556 4.5613 7.34667 4.65019C7.25778 4.73908 7.21334 4.85464 7.21334 4.99686ZM8.54667 3.66353C8.54667 3.80575 8.59111 3.9213 8.68 4.01019C8.76889 4.09908 8.87556 4.14353 9 4.14353C9.12445 4.14353 9.23111 4.09908 9.32 4.01019C9.40889 3.9213 9.45334 3.80575 9.45334 3.66353C9.45334 3.5213 9.40889 3.40575 9.32 3.31686C9.23111 3.22797 9.12445 3.18353 9 3.18353C8.87556 3.18353 8.76889 3.22797 8.68 3.31686C8.59111 3.40575 8.54667 3.5213 8.54667 3.66353ZM8.86667 5.31686C8.86667 5.42353 8.91111 5.53019 9 5.63686C9.08889 5.74353 9.19556 5.79686 9.32 5.79686C9.44445 5.79686 9.55111 5.74353 9.64 5.63686C9.72889 5.53019 9.77334 5.41464 9.77334 5.29019C9.77334 5.16575 9.72889 5.05908 9.64 4.97019C9.55111 4.8813 9.44445 4.83686 9.32 4.83686C9.19556 4.83686 9.08889 4.8813 9 4.97019C8.91111 5.05908 8.86667 5.17464 8.86667 5.31686Z" fill="white"/>
</svg>
