<svg width="20" height="21" viewBox="0 0 20 21" fill="none" xmlns="http://www.w3.org/2000/svg">
<g clip-path="url(#clip0_2_192)">
<path d="M16.1333 2.58314C15.2889 1.78314 14.3444 1.16092 13.3 0.716471C12.2556 0.272026 11.1556 0.0498028 10 0.0498028C8.84444 0.0498028 7.73333 0.272026 6.66666 0.716471C5.6 1.16092 4.66666 1.78314 3.86666 2.58314C3.06666 3.38314 2.44444 4.31647 1.99999 5.38314C1.55555 6.4498 1.33333 7.56091 1.33333 8.71647C1.33333 9.87203 1.55555 10.972 1.99999 12.0165C2.44444 13.0609 3.06666 14.0054 3.86666 14.8498L8.46666 19.4498C8.86666 19.8498 9.36666 20.0498 9.96666 20.0498C10.5667 20.0498 11.0889 19.8498 11.5333 19.4498L16.1333 14.8498C16.9333 14.0054 17.5556 13.0609 18 12.0165C18.4444 10.972 18.6667 9.87203 18.6667 8.71647C18.6667 7.56091 18.4444 6.4498 18 5.38314C17.5556 4.31647 16.9333 3.38314 16.1333 2.58314ZM15.2667 13.9831L10.6667 18.5831C10.4889 18.7609 10.2667 18.8498 10 18.8498C9.73333 18.8498 9.48888 18.7609 9.26666 18.5831L4.66666 13.9831C3.95555 13.272 3.42222 12.4609 3.06666 11.5498C2.71111 10.6387 2.53333 9.68314 2.53333 8.68314C2.53333 7.68314 2.71111 6.72758 3.06666 5.81647C3.42222 4.90536 3.95555 4.10536 4.66666 3.41647C5.37777 2.72758 6.18888 2.19425 7.1 1.81647C8.01111 1.43869 8.96666 1.2498 9.96666 1.2498C10.9667 1.2498 11.9222 1.43869 12.8333 1.81647C13.7444 2.19425 14.5556 2.71647 15.2667 3.38314C16.2444 4.36092 16.9 5.49425 17.2333 6.78314C17.5667 8.07203 17.5667 9.36092 17.2333 10.6498C16.9 11.9387 16.2444 13.0498 15.2667 13.9831ZM10 5.58314C9.15555 5.58314 8.42222 5.89425 7.8 6.51647C7.17777 7.13869 6.86666 7.87203 6.86666 8.71647C6.86666 9.56091 7.17777 10.2831 7.8 10.8831C8.42222 11.4831 9.15555 11.7831 10 11.7831C10.8444 11.7831 11.5667 11.4831 12.1667 10.8831C12.7667 10.2831 13.0667 9.56091 13.0667 8.71647C13.0667 7.87203 12.7667 7.13869 12.1667 6.51647C11.5667 5.89425 10.8444 5.58314 10 5.58314ZM10 10.6498C9.46666 10.6498 9.01111 10.4609 8.63333 10.0831C8.25555 9.70536 8.06666 9.2498 8.06666 8.71647C8.06666 8.18314 8.25555 7.72758 8.63333 7.3498C9.01111 6.97203 9.46666 6.78314 10 6.78314C10.5333 6.78314 10.9889 6.97203 11.3667 7.3498C11.7444 7.72758 11.9333 8.18314 11.9333 8.71647C11.9333 9.2498 11.7444 9.70536 11.3667 10.0831C10.9889 10.4609 10.5333 10.6498 10 10.6498Z" fill="white"/>
</g>
<defs>
<clipPath id="clip0_2_192">
<rect width="20" height="20" fill="white" transform="matrix(1 0 0 -1 0 20.0498)"/>
</clipPath>
</defs>
</svg>
