<svg width="17" height="17" viewBox="0 0 17 17" fill="none" xmlns="http://www.w3.org/2000/svg">
<g clip-path="url(#clip0_2_197)">
<path d="M14.5067 5.26316H7.46666C7.11111 5.26316 6.77333 5.36983 6.45333 5.58316C6.38222 5.04983 6.16 4.61427 5.78666 4.2765C5.41333 3.93872 4.97777 3.76983 4.48 3.76983C4.08888 3.76983 3.73333 3.85872 3.41333 4.0365V3.2365C3.41333 3.09427 3.36888 2.97872 3.28 2.88983C3.19111 2.80094 3.07555 2.7565 2.93333 2.7565H0.959996C0.817773 2.7565 0.702218 2.80094 0.613329 2.88983C0.52444 2.97872 0.479995 3.09427 0.479995 3.2365V13.2632C0.479995 13.4054 0.52444 13.5209 0.613329 13.6098C0.702218 13.6987 0.817773 13.7432 0.959996 13.7432H2.93333C3.07555 13.7432 3.19111 13.6987 3.28 13.6098C3.36888 13.5209 3.41333 13.4054 3.41333 13.2632V11.7165H13.5467V13.2632C13.5467 13.4054 13.5911 13.5209 13.68 13.6098C13.7689 13.6987 13.8844 13.7432 14.0267 13.7432H16C16.1422 13.7432 16.2578 13.6987 16.3467 13.6098C16.4356 13.5209 16.48 13.4054 16.48 13.2632V7.2365C16.48 6.70316 16.2844 6.24094 15.8933 5.84983C15.5022 5.45872 15.04 5.26316 14.5067 5.26316ZM4.48 4.6765C4.76444 4.6765 5.00444 4.78316 5.2 4.9965C5.39555 5.20983 5.49333 5.45872 5.49333 5.74316C5.49333 6.02761 5.39555 6.26761 5.2 6.46316C5.00444 6.65872 4.76444 6.7565 4.48 6.7565C4.19555 6.7565 3.94666 6.65872 3.73333 6.46316C3.52 6.26761 3.41333 6.02761 3.41333 5.74316C3.41333 5.45872 3.52 5.20983 3.73333 4.9965C3.94666 4.78316 4.19555 4.6765 4.48 4.6765ZM3.41333 7.3965C3.73333 7.60983 4.08 7.7165 4.45333 7.7165C4.82666 7.7165 5.17333 7.60983 5.49333 7.3965V8.78316H3.41333V7.3965ZM15.52 12.7832H14.4533V11.2365C14.4533 11.1298 14.4089 11.0321 14.32 10.9432C14.2311 10.8543 14.1333 10.8098 14.0267 10.8098H2.93333C2.82666 10.8098 2.72888 10.8543 2.64 10.9432C2.55111 11.0321 2.50666 11.1298 2.50666 11.2365V12.7832H1.44V3.7165H2.50666V9.26316C2.50666 9.36983 2.55111 9.4765 2.64 9.58316C2.72888 9.68983 2.82666 9.74316 2.93333 9.74316H15.52V12.7832ZM15.52 8.78316H6.45333V7.2365C6.45333 6.95205 6.55111 6.71205 6.74666 6.5165C6.94222 6.32094 7.18222 6.22316 7.46666 6.22316H14.5067C14.7911 6.22316 15.0311 6.32094 15.2267 6.5165C15.4222 6.71205 15.52 6.95205 15.52 7.2365V8.78316Z" fill="white"/>
</g>
<defs>
<clipPath id="clip0_2_197">
<rect width="16" height="16" fill="white" transform="matrix(1 0 0 -1 0.479996 16.25)"/>
</clipPath>
</defs>
</svg>
