<svg width="17" height="17" viewBox="0 0 17 17" fill="none" xmlns="http://www.w3.org/2000/svg">
<g clip-path="url(#clip0_2_204)">
<path d="M13.0833 15.5898H11.1633C11.0567 15.5898 10.95 15.6431 10.8433 15.7498C10.7367 15.8565 10.6833 15.972 10.6833 16.0965C10.6833 16.2209 10.7367 16.3276 10.8433 16.4165C10.95 16.5054 11.0567 16.5498 11.1633 16.5498H13.0833C13.2256 16.5498 13.3411 16.5054 13.43 16.4165C13.5189 16.3276 13.5633 16.2209 13.5633 16.0965C13.5633 15.972 13.5189 15.8565 13.43 15.7498C13.3411 15.6431 13.2256 15.5898 13.0833 15.5898ZM9.29668 15.5898H7.43001C7.28779 15.5898 7.17224 15.6431 7.08335 15.7498C6.99446 15.8565 6.95001 15.972 6.95001 16.0965C6.95001 16.2209 6.99446 16.3276 7.08335 16.4165C7.17224 16.5054 7.28779 16.5498 7.43001 16.5498H9.29668C9.4389 16.5498 9.55446 16.5054 9.64335 16.4165C9.73224 16.3276 9.77668 16.2209 9.77668 16.0965C9.77668 15.972 9.73224 15.8565 9.64335 15.7498C9.55446 15.6431 9.4389 15.5898 9.29668 15.5898ZM15.91 7.1098C15.8033 7.1098 15.6967 7.15425 15.59 7.24314C15.4833 7.33203 15.43 7.44758 15.43 7.5898V9.45647C15.43 9.59869 15.4833 9.71425 15.59 9.80314C15.6967 9.89203 15.8122 9.93647 15.9367 9.93647C16.0611 9.93647 16.1678 9.89203 16.2567 9.80314C16.3456 9.71425 16.39 9.59869 16.39 9.45647V7.5898C16.39 7.44758 16.3456 7.33203 16.2567 7.24314C16.1678 7.15425 16.0522 7.1098 15.91 7.1098ZM15.91 10.8431C15.8033 10.8431 15.6967 10.8965 15.59 11.0031C15.4833 11.1098 15.43 11.2165 15.43 11.3231V13.1898C15.43 13.332 15.4833 13.4476 15.59 13.5365C15.6967 13.6254 15.8122 13.6698 15.9367 13.6698C16.0611 13.6698 16.1678 13.6254 16.2567 13.5365C16.3456 13.4476 16.39 13.332 16.39 13.1898V11.3231C16.39 11.2165 16.3456 11.1098 16.2567 11.0031C16.1678 10.8965 16.0522 10.8431 15.91 10.8431ZM5.56335 15.5898H5.08335V15.1631C5.08335 15.0209 5.0389 14.9054 4.95001 14.8165C4.86113 14.7276 4.74557 14.6831 4.60335 14.6831C4.46113 14.6831 4.34557 14.7276 4.25668 14.8165C4.16779 14.9054 4.12335 15.0209 4.12335 15.1631V16.0698C4.12335 16.212 4.16779 16.3276 4.25668 16.4165C4.34557 16.5054 4.46113 16.5498 4.60335 16.5498H5.56335C5.67001 16.5498 5.76779 16.5054 5.85668 16.4165C5.94557 16.3276 5.99001 16.2209 5.99001 16.0965C5.99001 15.972 5.94557 15.8565 5.85668 15.7498C5.76779 15.6431 5.67001 15.5898 5.56335 15.5898ZM15.91 4.28314H15.0033C14.8611 4.28314 14.7456 4.32758 14.6567 4.41647C14.5678 4.50536 14.5233 4.62092 14.5233 4.76314C14.5233 4.90536 14.5678 5.02092 14.6567 5.1098C14.7456 5.19869 14.8611 5.24314 15.0033 5.24314H15.43V5.72314C15.43 5.8298 15.4833 5.92758 15.59 6.01647C15.6967 6.10536 15.8122 6.1498 15.9367 6.1498C16.0611 6.1498 16.1678 6.10536 16.2567 6.01647C16.3456 5.92758 16.39 5.8298 16.39 5.72314V4.76314C16.39 4.62092 16.3456 4.50536 16.2567 4.41647C16.1678 4.32758 16.0522 4.28314 15.91 4.28314ZM15.91 14.6831C15.8033 14.6831 15.6967 14.7276 15.59 14.8165C15.4833 14.9054 15.43 15.0209 15.43 15.1631V15.5898H15.0033C14.8611 15.5898 14.7456 15.6431 14.6567 15.7498C14.5678 15.8565 14.5233 15.972 14.5233 16.0965C14.5233 16.2209 14.5678 16.3276 14.6567 16.4165C14.7456 16.5054 14.8611 16.5498 15.0033 16.5498H15.91C16.0522 16.5498 16.1678 16.5054 16.2567 16.4165C16.3456 16.3276 16.39 16.212 16.39 16.0698V15.1631C16.39 15.0209 16.3456 14.9054 16.2567 14.8165C16.1678 14.7276 16.0522 14.6831 15.91 14.6831ZM13.0833 4.28314H12.6033V1.0298C12.6033 0.887582 12.55 0.772026 12.4433 0.683138C12.3367 0.594249 12.23 0.549805 12.1233 0.549805H0.870015C0.727792 0.549805 0.612237 0.594249 0.523348 0.683138C0.434459 0.772026 0.390015 0.887582 0.390015 1.0298V12.2831C0.390015 12.3898 0.434459 12.4965 0.523348 12.6031C0.612237 12.7098 0.727792 12.7631 0.870015 12.7631H4.12335V13.1898C4.12335 13.332 4.16779 13.4476 4.25668 13.5365C4.34557 13.6254 4.46113 13.6698 4.60335 13.6698C4.74557 13.6698 4.86113 13.6254 4.95001 13.5365C5.0389 13.4476 5.08335 13.332 5.08335 13.1898V5.24314H13.0833C13.2256 5.24314 13.3411 5.19869 13.43 5.1098C13.5189 5.02092 13.5633 4.90536 13.5633 4.76314C13.5633 4.62092 13.5189 4.50536 13.43 4.41647C13.3411 4.32758 13.2256 4.28314 13.0833 4.28314ZM11.6433 4.28314H4.60335C4.46113 4.28314 4.34557 4.32758 4.25668 4.41647C4.16779 4.50536 4.12335 4.62092 4.12335 4.76314V11.8031H1.35001V1.5098H11.6433V4.28314Z" fill="white"/>
</g>
<defs>
<clipPath id="clip0_2_204">
<rect width="16" height="16" fill="white" transform="matrix(1 0 0 -1 0.390015 16.5498)"/>
</clipPath>
</defs>
</svg>
