<svg width="16" height="13" viewBox="0 0 16 13" fill="none" xmlns="http://www.w3.org/2000/svg">
<g clip-path="url(#clip0_2_215)">
<path d="M1.65745 5.81791H13.6681L9.06903 1.43866C8.8282 1.20934 8.81887 0.828357 9.04825 0.587607C9.27733 0.347158 9.65843 0.337528 9.89955 0.566843L15.1519 5.56843C15.3791 5.79593 15.5047 6.09807 15.5047 6.41978C15.5047 6.74118 15.3791 7.04362 15.1413 7.28106L9.89925 12.2724C9.78276 12.3834 9.63345 12.4385 9.48414 12.4385C9.3252 12.4385 9.16625 12.3759 9.04795 12.2517C8.81857 12.0109 8.8279 11.6302 9.06873 11.4009L13.6871 7.02166H1.65745C1.32511 7.02166 1.05539 6.75202 1.05539 6.41978C1.05539 6.08755 1.32511 5.81791 1.65745 5.81791Z" fill="#1A1A1A"/>
</g>
<defs>
<clipPath id="clip0_2_215">
<rect width="15" height="12.84" fill="white" transform="translate(0.780029 -0.000488281)"/>
</clipPath>
</defs>
</svg>
