<svg width="14" height="14" viewBox="0 0 14 14" fill="none" xmlns="http://www.w3.org/2000/svg">
<path d="M3.54794 13.2998H0.823332V4.54004H3.54794V13.2998ZM2.17099 3.36816C1.32138 3.36816 0.618254 2.63574 0.618254 1.75684C0.618254 0.907227 1.32138 0.204102 2.17099 0.204102C3.04989 0.204102 3.75302 0.907227 3.75302 1.75684C3.75302 2.63574 3.04989 3.36816 2.17099 3.36816ZM13.714 13.2998H11.0186V9.05176C11.0186 8.02637 10.9893 6.7373 9.5831 6.7373C8.17685 6.7373 7.97177 7.82129 7.97177 8.96387V13.2998H5.24716V4.54004H7.85458V5.74121H7.88388C8.26474 5.06738 9.14364 4.33496 10.462 4.33496C13.2159 4.33496 13.7433 6.15137 13.7433 8.49512V13.2998H13.714Z" fill="white"/>
</svg>
