<svg width="16" height="13" viewBox="0 0 16 13" fill="none" xmlns="http://www.w3.org/2000/svg">
<path d="M13.7632 3.62793C13.7632 3.77441 13.7632 3.8916 13.7632 4.03809C13.7632 8.11035 10.687 12.7686 5.03273 12.7686C3.27492 12.7686 1.66359 12.2705 0.315937 11.3916C0.550312 11.4209 0.784687 11.4502 1.04836 11.4502C2.48391 11.4502 3.80226 10.9521 4.85695 10.1318C3.5093 10.1025 2.36672 9.22363 1.98586 7.99316C2.19094 8.02246 2.36672 8.05176 2.5718 8.05176C2.83547 8.05176 3.12844 7.99316 3.36281 7.93457C1.95656 7.6416 0.901874 6.41113 0.901874 4.91699V4.8877C1.31203 5.12207 1.81008 5.23926 2.30812 5.26855C1.45851 4.71191 0.931171 3.77441 0.931171 2.71973C0.931171 2.13379 1.07766 1.60645 1.34133 1.16699C2.86476 3.0127 5.14992 4.24316 7.69875 4.38965C7.64016 4.15527 7.61086 3.9209 7.61086 3.68652C7.61086 1.9873 8.98781 0.610352 10.687 0.610352C11.5659 0.610352 12.357 0.961914 12.9429 1.57715C13.6167 1.43066 14.2905 1.16699 14.8765 0.81543C14.6421 1.54785 14.1734 2.13379 13.5288 2.51465C14.1441 2.45605 14.7593 2.28027 15.2866 2.0459C14.8765 2.66113 14.3491 3.18848 13.7632 3.62793Z" fill="white"/>
</svg>
