<svg width="14" height="14" viewBox="0 0 14 14" fill="none" xmlns="http://www.w3.org/2000/svg">
<path d="M7.0001 3.30566C8.8458 3.30566 10.3692 4.8291 10.3692 6.6748C10.3692 8.5498 8.8458 10.0439 7.0001 10.0439C5.1251 10.0439 3.63096 8.5498 3.63096 6.6748C3.63096 4.8291 5.1251 3.30566 7.0001 3.30566ZM7.0001 8.87207C8.20127 8.87207 9.16806 7.90527 9.16806 6.6748C9.16806 5.47363 8.20127 4.50684 7.0001 4.50684C5.76963 4.50684 4.80283 5.47363 4.80283 6.6748C4.80283 7.90527 5.79892 8.87207 7.0001 8.87207ZM11.2774 3.18848C11.2774 3.62793 10.9259 3.97949 10.4864 3.97949C10.047 3.97949 9.69541 3.62793 9.69541 3.18848C9.69541 2.74902 10.047 2.39746 10.4864 2.39746C10.9259 2.39746 11.2774 2.74902 11.2774 3.18848ZM13.504 3.97949C13.5626 5.06348 13.5626 8.31543 13.504 9.39941C13.4454 10.4541 13.211 11.3623 12.4493 12.1533C11.6876 12.915 10.7501 13.1494 9.69541 13.208C8.61142 13.2666 5.35947 13.2666 4.27549 13.208C3.2208 13.1494 2.3126 12.915 1.52158 12.1533C0.759861 11.3623 0.525486 10.4541 0.466893 9.39941C0.408299 8.31543 0.408299 5.06348 0.466893 3.97949C0.525486 2.9248 0.759861 1.9873 1.52158 1.22559C2.3126 0.463867 3.2208 0.229492 4.27549 0.170898C5.35947 0.112305 8.61142 0.112305 9.69541 0.170898C10.7501 0.229492 11.6876 0.463867 12.4493 1.22559C13.211 1.9873 13.4454 2.9248 13.504 3.97949ZM12.0978 10.542C12.4493 9.69238 12.3614 7.6416 12.3614 6.6748C12.3614 5.7373 12.4493 3.68652 12.0978 2.80762C11.8634 2.25098 11.4239 1.78223 10.8673 1.57715C9.98838 1.22559 7.9376 1.31348 7.0001 1.31348C6.0333 1.31348 3.98252 1.22559 3.13291 1.57715C2.54697 1.81152 2.10752 2.25098 1.87314 2.80762C1.52158 3.68652 1.60947 5.7373 1.60947 6.6748C1.60947 7.6416 1.52158 9.69238 1.87314 10.542C2.10752 11.1279 2.54697 11.5674 3.13291 11.8018C3.98252 12.1533 6.0333 12.0654 7.0001 12.0654C7.9376 12.0654 9.98838 12.1533 10.8673 11.8018C11.4239 11.5674 11.8927 11.1279 12.0978 10.542Z" fill="white"/>
</svg>
