<svg width="14" height="13" viewBox="0 0 14 13" fill="none" xmlns="http://www.w3.org/2000/svg">
<g clip-path="url(#clip0_2_388)">
<path d="M0.8125 5.37514H12.0341L7.73716 1.28239C7.51216 1.06808 7.50344 0.712012 7.71775 0.487012C7.93178 0.262293 8.28784 0.253293 8.51312 0.467606L13.4204 5.14198C13.6327 5.35461 13.75 5.63698 13.75 5.93764C13.75 6.23801 13.6327 6.52067 13.4105 6.74258L8.51284 11.4074C8.404 11.5112 8.2645 11.5627 8.125 11.5627C7.9765 11.5627 7.828 11.5042 7.71747 11.388C7.50316 11.163 7.51188 10.8072 7.73688 10.5929L12.0518 6.50014H0.8125C0.502 6.50014 0.25 6.24814 0.25 5.93764C0.25 5.62714 0.502 5.37514 0.8125 5.37514Z" fill="white"/>
</g>
<defs>
<clipPath id="clip0_2_388">
<rect width="14" height="12" fill="white" transform="translate(0 0.0800781)"/>
</clipPath>
</defs>
</svg>
