<svg width="21" height="21" viewBox="0 0 21 21" fill="none" xmlns="http://www.w3.org/2000/svg">
<g clip-path="url(#clip0_2_20)">
<path d="M20.78 19.4966L15.8466 14.63C16.4689 13.8744 16.9578 13.0411 17.3133 12.13C17.6689 11.2188 17.8466 10.2522 17.8466 9.22996C17.8466 7.71884 17.4689 6.31884 16.7133 5.02995C15.9578 3.74107 14.9355 2.71884 13.6466 1.96329C12.3578 1.20773 10.9466 0.829954 9.41331 0.829954C7.87998 0.829954 6.46887 1.20773 5.17998 1.96329C3.89109 2.71884 2.86887 3.74107 2.11331 5.02995C1.35776 6.31884 0.97998 7.72996 0.97998 9.26329C0.97998 10.7966 1.35776 12.2077 2.11331 13.4966C2.86887 14.7855 3.89109 15.8077 5.17998 16.5633C6.46887 17.3188 7.86887 17.6966 9.37998 17.6966C10.4022 17.6966 11.3689 17.5188 12.28 17.1633C13.1911 16.8077 14.0244 16.3188 14.78 15.6966L19.6466 20.63C19.8244 20.7633 20.0133 20.83 20.2133 20.83C20.4133 20.83 20.5911 20.7522 20.7466 20.5966C20.9022 20.4411 20.98 20.2633 20.98 20.0633C20.98 19.8633 20.9133 19.6744 20.78 19.4966ZM2.51331 9.22996C2.51331 7.98551 2.82442 6.84107 3.44665 5.79662C4.06887 4.75218 4.9022 3.91884 5.94665 3.29662C6.99109 2.6744 8.13554 2.36329 9.37998 2.36329C10.6244 2.36329 11.7689 2.6744 12.8133 3.29662C13.8578 3.91884 14.6911 4.75218 15.3133 5.79662C15.9355 6.84107 16.2466 7.98551 16.2466 9.22996C16.2466 10.4744 15.9355 11.6188 15.3133 12.6633C14.6911 13.7077 13.8578 14.5411 12.8133 15.1633C11.7689 15.7855 10.6244 16.0966 9.37998 16.0966C8.13554 16.0966 6.99109 15.7855 5.94665 15.1633C4.9022 14.5411 4.06887 13.7077 3.44665 12.6633C2.82442 11.6188 2.51331 10.4744 2.51331 9.22996Z" fill="#1A1A1A"/>
</g>
<defs>
<clipPath id="clip0_2_20">
<rect width="20" height="20" fill="white" transform="matrix(1 0 0 -1 0.97998 20.83)"/>
</clipPath>
</defs>
</svg>
