<svg width="21" height="21" viewBox="0 0 21 21" fill="none" xmlns="http://www.w3.org/2000/svg">
<g clip-path="url(#clip0_2_461)">
<path d="M15.35 20.25C13.5277 20.25 11.75 19.9167 10.0166 19.25C8.1944 18.5389 6.58328 17.4722 5.18328 16.05C3.78328 14.6278 2.70551 13.0056 1.94995 11.1833C1.28328 9.45 0.949951 7.67222 0.949951 5.85C0.949951 4.82778 1.20551 3.89444 1.71662 3.05C2.22773 2.20555 2.90551 1.52778 3.74995 1.01667C4.5944 0.505554 5.52773 0.249998 6.54995 0.249998C6.81662 0.249998 6.9944 0.383333 7.08328 0.65L9.61662 6.91667C9.66106 7.05 9.64995 7.19444 9.58329 7.35C9.51662 7.50556 9.41662 7.60555 9.28329 7.65L6.54995 8.78333C6.5944 9.80556 6.88329 10.7611 7.41662 11.65C7.94995 12.5389 8.66106 13.25 9.54995 13.7833C10.4388 14.3167 11.3944 14.6056 12.4166 14.65L13.55 11.9167C13.5944 11.7833 13.6944 11.6833 13.85 11.6167C14.0055 11.55 14.15 11.5389 14.2833 11.5833L20.55 14.1167C20.8166 14.2056 20.95 14.3833 20.95 14.65C20.95 15.6722 20.6944 16.6056 20.1833 17.45C19.6722 18.2944 18.9944 18.9722 18.15 19.4833C17.3055 19.9944 16.3722 20.25 15.35 20.25ZM6.14995 1.45C5.03884 1.53889 4.0944 2.00555 3.31662 2.85C2.53884 3.69444 2.14995 4.69444 2.14995 5.85C2.14995 7.62778 2.48328 9.31667 3.14995 10.9167C3.81662 12.5167 4.77217 13.9389 6.01662 15.1833C7.26106 16.4278 8.68328 17.3833 10.2833 18.05C11.8833 18.7167 13.5722 19.05 15.35 19.05C16.5055 19.05 17.5055 18.6611 18.35 17.8833C19.1944 17.1056 19.6611 16.1611 19.75 15.05L14.4166 12.9167L13.35 15.5167C13.2611 15.7389 13.0833 15.85 12.8166 15.85C11.4833 15.85 10.2388 15.5167 9.08329 14.85C7.92773 14.1833 7.01662 13.2722 6.34995 12.1167C5.68328 10.9611 5.34995 9.71667 5.34995 8.38333C5.34995 8.11667 5.46106 7.93889 5.68328 7.85L8.28328 6.78333L6.14995 1.45Z" fill="white"/>
</g>
<defs>
<clipPath id="clip0_2_461">
<rect width="20" height="20" fill="white" transform="matrix(1 0 0 -1 0.949951 20.25)"/>
</clipPath>
</defs>
</svg>
