<svg width="17" height="17" viewBox="0 0 17 17" fill="none" xmlns="http://www.w3.org/2000/svg">
<g clip-path="url(#clip0_2_465)">
<path d="M8.69501 8.48333C9.76168 8.48333 10.6683 8.10111 11.415 7.33667C12.1617 6.57222 12.535 5.65667 12.535 4.59C12.535 3.52333 12.1617 2.61667 11.415 1.87C10.6683 1.12333 9.76168 0.75 8.69501 0.75C7.62834 0.75 6.72168 1.12333 5.97501 1.87C5.22834 2.61667 4.85501 3.52333 4.85501 4.59C4.85501 5.65667 5.22834 6.57222 5.97501 7.33667C6.72168 8.10111 7.62834 8.48333 8.69501 8.48333ZM6.61501 2.56333C7.1839 1.99444 7.86834 1.71 8.66834 1.71C9.46834 1.71 10.1617 1.99444 10.7483 2.56333C11.335 3.13222 11.6283 3.81667 11.6283 4.61667C11.6283 5.41667 11.3439 6.10111 10.775 6.67C10.2061 7.23889 9.51279 7.52333 8.69501 7.52333C7.87723 7.52333 7.1839 7.23889 6.61501 6.67C6.04612 6.10111 5.76168 5.41667 5.76168 4.61667C5.76168 3.81667 6.04612 3.13222 6.61501 2.56333ZM15.415 13.07C15.415 12.75 15.3795 12.4033 15.3083 12.03C15.2372 11.6567 15.1483 11.3189 15.0417 11.0167C14.935 10.7144 14.7928 10.4033 14.615 10.0833C14.4372 9.76333 14.2328 9.48778 14.0017 9.25667C13.7706 9.02556 13.4772 8.83889 13.1217 8.69667C12.7661 8.55444 12.375 8.48333 11.9483 8.48333C11.8061 8.48333 11.5928 8.57222 11.3083 8.75L10.6683 9.17667C10.455 9.31889 10.1706 9.44333 9.81501 9.55C9.45945 9.65667 9.11279 9.71 8.77501 9.71C8.43723 9.71 8.09057 9.65667 7.73501 9.55C7.37945 9.44333 7.11279 9.31889 6.93501 9.17667L6.24168 8.75C5.99279 8.57222 5.79723 8.48333 5.65501 8.48333C5.22834 8.48333 4.83723 8.55444 4.48168 8.69667C4.12612 8.83889 3.8239 9.02556 3.57501 9.25667C3.32612 9.48778 3.11279 9.76333 2.93501 10.0833C2.75723 10.4033 2.61501 10.7233 2.50834 11.0433C2.40168 11.3633 2.32168 11.7011 2.26834 12.0567C2.21501 12.4122 2.17945 12.7411 2.16168 13.0433C2.1439 13.3456 2.13501 13.6567 2.13501 13.9767C2.13501 14.83 2.39279 15.5056 2.90834 16.0033C3.4239 16.5011 4.10834 16.75 4.96168 16.75H12.6417C13.4595 16.75 14.135 16.5011 14.6683 16.0033C15.2017 15.5056 15.4683 14.83 15.4683 13.9767C15.4683 13.6567 15.4506 13.3544 15.415 13.07ZM14.0283 15.31C13.6728 15.63 13.2106 15.79 12.6417 15.79H4.96168C4.35723 15.79 3.88612 15.63 3.54834 15.31C3.21057 14.99 3.04168 14.5456 3.04168 13.9767L3.09501 13.1233C3.09501 12.8389 3.13057 12.5367 3.20168 12.2167C3.27279 11.8967 3.3439 11.6033 3.41501 11.3367C3.48612 11.07 3.59279 10.8122 3.73501 10.5633C3.87723 10.3144 4.03723 10.11 4.21501 9.95C4.39279 9.79 4.59723 9.66556 4.82834 9.57667C5.05945 9.48778 5.29945 9.44333 5.54834 9.44333L6.40168 9.97667C6.68612 10.1544 7.04168 10.3056 7.46834 10.43C7.89501 10.5544 8.33057 10.6167 8.77501 10.6167C9.21945 10.6167 9.6639 10.5544 10.1083 10.43C10.5528 10.3056 10.8995 10.1544 11.1483 9.97667L12.0017 9.44333C12.2861 9.44333 12.5439 9.48778 12.775 9.57667C13.0061 9.66556 13.2017 9.79 13.3617 9.95C13.5217 10.11 13.6728 10.3144 13.815 10.5633C13.9572 10.8122 14.0728 11.07 14.1617 11.3367C14.2506 11.6033 14.3217 11.8967 14.375 12.2167C14.4283 12.5367 14.4728 12.8389 14.5083 13.1233V13.9767C14.5083 14.5456 14.3483 14.99 14.0283 15.31Z" fill="white"/>
</g>
<defs>
<clipPath id="clip0_2_465">
<rect width="15.95" height="16" fill="white" transform="matrix(1 0 0 -1 0.800018 16.75)"/>
</clipPath>
</defs>
</svg>
