<svg width="12" height="14" viewBox="0 0 12 14" fill="none" xmlns="http://www.w3.org/2000/svg">
<g clip-path="url(#clip0_2_428)">
<path d="M5.41531 0.893163L5.4146 0.893869L0.897167 5.4113C0.545908 5.76569 0.548449 6.33774 0.902842 6.689C0.93085 6.71675 0.960637 6.74265 0.992033 6.76653C1.36983 7.01982 1.87508 6.96454 2.18915 6.63553L4.69181 4.1419C4.82451 4.00934 4.93578 3.85694 5.02159 3.69016L5.16614 3.41459L5.16615 12.2913C5.14703 12.7459 5.45786 13.1482 5.90249 13.2445C6.39503 13.3244 6.85908 12.9899 6.93896 12.4973C6.94734 12.4456 6.95121 12.3933 6.95053 12.341V3.43266L7.04088 3.62691C7.1294 3.81645 7.25015 3.98915 7.39776 4.13738L9.8959 6.63553C10.21 6.96454 10.7152 7.01982 11.093 6.76653C11.4956 6.47175 11.583 5.90641 11.2882 5.50379C11.2644 5.47127 11.2384 5.44035 11.2105 5.4113L6.69304 0.893869C6.3404 0.540858 5.76835 0.540548 5.41531 0.893163Z" fill="white"/>
</g>
<defs>
<clipPath id="clip0_2_428">
<rect width="11" height="13" fill="white" transform="translate(0.5 0.589844)"/>
</clipPath>
</defs>
</svg>
