<svg width="13" height="13" viewBox="0 0 13 13" fill="none" xmlns="http://www.w3.org/2000/svg">
<circle cx="6.5" cy="6.45007" r="6" fill="#36B864"/>
<path d="M5.39157 8.48213L5.39219 8.48143L3.72471 6.61236C3.66842 6.54713 3.63723 6.45972 3.63788 6.36897C3.63853 6.27821 3.67095 6.19137 3.72816 6.12715C3.78537 6.06293 3.8628 6.02647 3.94376 6.02562C4.02473 6.02476 4.10275 6.05959 4.16103 6.1226L5.82851 7.99201L9.10388 4.32137C9.13236 4.28831 9.16644 4.26194 9.20411 4.2438C9.24178 4.22566 9.2823 4.21611 9.3233 4.21571C9.36431 4.21531 9.40497 4.22407 9.44292 4.24147C9.48087 4.25888 9.51534 4.28458 9.54434 4.31708C9.57333 4.34957 9.59626 4.38822 9.61179 4.43076C9.62731 4.47329 9.63512 4.51887 9.63477 4.56483C9.63441 4.61079 9.62589 4.65621 9.60971 4.69844C9.59353 4.74066 9.57 4.77886 9.54051 4.81079L6.04652 8.72684C5.98861 8.79172 5.91008 8.82818 5.8282 8.82818C5.74632 8.82818 5.66779 8.79172 5.60989 8.72684L5.39157 8.48213Z" fill="white"/>
</svg>
