<svg width="25" height="25" viewBox="0 0 25 25" fill="none" xmlns="http://www.w3.org/2000/svg">
<path fill-rule="evenodd" clip-rule="evenodd" d="M13.1411 9.78689V11.1974C13.4365 10.7474 13.8436 10.3819 14.3227 10.1366C14.8017 9.89121 15.3363 9.77445 15.874 9.79769C18.7457 9.79769 19.3665 11.593 19.3665 13.9286V18.6837H16.7068V14.468C16.7068 13.4623 16.504 12.169 14.9381 12.169C13.4195 12.169 13.1602 13.2637 13.1602 14.3932V18.6837H10.5088V9.78689H13.1411ZM8.72759 7.55104C8.72726 7.81453 8.64916 8.07205 8.50307 8.29133C8.35698 8.5106 8.14942 8.68187 7.90639 8.78367C7.66346 8.88464 7.39599 8.91105 7.138 8.85954C6.88002 8.80803 6.64319 8.68094 6.45766 8.49442C6.27179 8.30779 6.14524 8.07036 6.09394 7.812C6.04264 7.55364 6.06887 7.28588 6.16934 7.04239C6.26981 6.7989 6.44003 6.59055 6.6586 6.44354C6.87716 6.29654 7.13431 6.21744 7.39772 6.21619C7.57278 6.21619 7.74612 6.25075 7.90779 6.31789C8.06946 6.38504 8.21629 6.48344 8.33984 6.60746C8.4634 6.73148 8.56125 6.87867 8.62779 7.04059C8.69433 7.20252 8.72824 7.37598 8.72759 7.55104Z" fill="#111D15"/>
<path d="M8.7281 9.79785H6.06836V18.6839H8.7281V9.79785Z" fill="#111D15"/>
</svg>
