<svg width="44" height="37" viewBox="0 0 44 37" fill="none" xmlns="http://www.w3.org/2000/svg">
<path d="M23.6162 33.692C26.4212 31.7939 28.344 29.7603 29.3846 27.5911C30.4251 25.467 30.9454 23.4334 30.9454 21.4901C30.9454 19.4113 30.3799 17.5584 29.2488 15.9314C28.0725 14.3497 26.7832 12.9714 25.3807 11.7963C24.7473 11.1185 24.4306 10.3728 24.4306 9.55933C24.4306 8.61029 24.7473 7.63866 25.3807 6.64443C26.014 5.6502 26.851 4.72375 27.8916 3.8651C28.9321 3.00645 30.1537 2.30597 31.5562 1.76366C32.9134 1.22135 34.3385 0.950198 35.8315 0.950198C37.2793 0.950199 38.5008 1.31174 39.4961 2.03481C40.4462 2.75789 41.2153 3.63914 41.8034 4.67856C42.3916 5.71799 42.8214 6.8026 43.0928 7.93241C43.3643 9.10741 43.5 10.1468 43.5 11.0507C43.5 13.6718 43.025 16.18 42.0749 18.5752C41.1248 21.0156 39.8354 23.2978 38.2067 25.4218C36.578 27.5459 34.6778 29.4891 32.5062 31.2516C30.3346 33.0593 28.0499 34.6637 25.6521 36.0646L23.6162 33.692ZM-3.60728e-06 33.8276C2.75975 31.9295 4.68252 29.8959 5.76833 27.7266C6.80889 25.6026 7.32917 23.5689 7.32917 21.6257C7.32917 19.5468 6.76365 17.6939 5.6326 16.067C4.45632 14.4853 3.16693 13.1069 1.76443 11.9319C1.13104 11.254 0.814349 10.5084 0.814349 9.69491C0.814349 8.74587 1.13104 7.77423 1.76443 6.78C2.39781 5.78577 3.23479 4.85933 4.27535 4.00068C5.31591 3.14202 6.53744 2.44154 7.93994 1.89924C9.29719 1.35693 10.7223 1.08577 12.2153 1.08577C13.663 1.08577 14.8619 1.44731 15.812 2.17039C16.7621 2.89346 17.5538 3.77472 18.1872 4.81414C18.7754 5.85356 19.2051 6.93818 19.4766 8.06798C19.7028 9.24298 19.8159 10.2824 19.8159 11.1863C19.8159 13.8074 19.3409 16.3156 18.3908 18.7108C17.4407 21.1512 16.1513 23.4334 14.5226 25.5574C12.8939 27.6814 11.0164 29.6247 8.89001 31.3872C6.7184 33.1949 4.43369 34.7992 2.03588 36.2002L-3.60728e-06 33.8276Z" fill="#ECEAEA"/>
</svg>
