<svg width="23" height="37" viewBox="0 0 23 37" fill="none" xmlns="http://www.w3.org/2000/svg">
<path d="M15.9762 23.8429C15.9677 22.758 15.6955 21.6939 15.1861 20.7538C14.6767 19.8138 13.9474 19.0296 13.0689 18.4776L22.0196 1.98573L19.9273 0.700012L10.7637 17.5763C9.63912 17.3092 8.46946 17.3461 7.36174 17.6837C6.25402 18.0213 5.24359 18.6488 4.42288 19.5087C-0.105099 24.1514 0.245627 35.0054 0.262558 35.4657C0.27506 35.7977 0.407976 36.1117 0.633441 36.3418C0.858906 36.5719 1.15941 36.7003 1.47195 36.7H19.602C19.8558 36.7 20.1032 36.6151 20.3092 36.4573C20.5151 36.2995 20.6691 36.0769 20.7493 35.8209C20.8296 35.5649 20.8321 35.2885 20.7564 35.0309C20.6807 34.7734 20.5307 34.5476 20.3276 34.3857C16.0464 30.9709 15.9762 23.9123 15.9762 23.8429ZM9.84097 19.9819C10.8089 19.9932 11.7355 20.4008 12.428 21.1199C13.1204 21.8391 13.5254 22.8144 13.5587 23.8429C13.5587 23.8917 13.5611 24.1103 13.5792 24.4459L6.44378 21.0722C6.9138 20.6601 7.45618 20.3515 8.0394 20.1644C8.62261 19.9772 9.23501 19.9152 9.84097 19.9819ZM14.098 34.1286C13.1314 33.0822 12.5152 31.7268 12.3444 30.2714H9.92563C10.0122 31.6398 10.4143 32.9645 11.0963 34.1286H8.40784C7.91048 32.46 7.60787 30.7328 7.50684 28.9857H5.08805C5.16604 30.7275 5.43597 32.4536 5.8923 34.1286H2.66926C2.70675 31.768 3.01998 26.5532 4.8498 23.1319L13.9602 27.439C14.3979 29.8553 15.3311 32.1393 16.6934 34.1286H14.098Z" fill="#36B864"/>
</svg>
