<svg width="40" height="40" viewBox="0 0 40 40" fill="none" xmlns="http://www.w3.org/2000/svg">
<path d="M19.9829 2.5874C21.0043 2.5874 22.0039 2.73574 22.7573 3.01709V3.01807L31.0747 6.13525H31.0757C33.2952 6.96202 35.0503 9.50761 35.0503 11.8667V24.2495C35.0503 25.3367 34.7061 26.5895 34.1235 27.7485C33.5775 28.8348 32.8401 29.8024 32.0308 30.4556L31.8677 30.5825L24.7007 35.9321L24.6948 35.937C23.4121 36.9261 21.7235 37.4331 19.9995 37.4331C18.2768 37.433 16.5844 36.9263 15.2642 35.9478H15.2632L8.09912 30.5991C7.22641 29.9484 6.42508 28.9208 5.84229 27.7593C5.25944 26.5976 4.9165 25.3447 4.9165 24.2661V11.8667C4.9165 9.58124 6.56318 7.12039 8.68408 6.21729L8.89111 6.13525H8.89209L17.2085 3.01807C17.9619 2.73655 18.9613 2.58743 19.9829 2.5874ZM20.0005 4.08545C19.3016 4.08736 18.5813 4.17016 17.9878 4.34912L17.7417 4.43115L17.7407 4.43213L9.42432 7.54834H9.42334C8.59584 7.85993 7.85461 8.52245 7.32373 9.29053C6.79265 10.0589 6.43311 10.9898 6.43311 11.8833V24.2661C6.43311 25.1606 6.74368 26.1893 7.20068 27.1011C7.60039 27.8986 8.137 28.6561 8.73877 29.187L9.00049 29.4009L16.1675 34.7505C17.2293 35.5444 18.6279 35.9252 20.0015 35.9253C21.2896 35.9253 22.6027 35.5902 23.6431 34.895L23.8472 34.7515L23.8491 34.7505L31.0151 29.4009L31.0161 29.3999C31.7309 28.8638 32.3664 28.0049 32.8218 27.0942C33.2771 26.1836 33.5835 25.1596 33.5835 24.2661V11.8667C33.5835 10.9807 33.2231 10.0539 32.6929 9.28662C32.1956 8.56719 31.514 7.93786 30.7515 7.59814L30.5972 7.53369L30.5923 7.53174L22.2749 4.41455L22.2661 4.41162L22.0181 4.33252C21.4212 4.16197 20.6998 4.08354 20.0005 4.08545Z" fill="#FAFAFA" stroke="#FAFAFA"/>
<path d="M24.4038 14.77C24.6738 14.5003 25.1153 14.4832 25.4067 14.7192L25.4634 14.77C25.7335 15.0402 25.7498 15.4824 25.5132 15.7739L25.4634 15.8296L18.2964 22.9966C18.1451 23.1478 17.9573 23.2163 17.7661 23.2163C17.599 23.2162 17.4351 23.1637 17.2954 23.0493L17.2368 22.9966L14.5532 20.313C14.2834 20.043 14.2665 19.6015 14.5024 19.3101L14.5532 19.2534C14.8233 18.9833 15.2656 18.9663 15.5571 19.2026L15.6128 19.2534L17.7661 21.4067L18.1206 21.0532L24.4038 14.77Z" fill="#FAFAFA" stroke="#FAFAFA"/>
</svg>
