<svg width="144" height="14" viewBox="0 0 144 14" fill="none" xmlns="http://www.w3.org/2000/svg">
<path d="M0.799561 13.5044V0.413485H4.35354V10.6408H9.64615V13.5044H0.799561ZM11.0828 13.5044V0.413485H20.5174V3.27712H14.6367V5.52712H20.0316V8.39076H14.6367V10.6408H20.4919V13.5044H11.0828ZM25.6806 13.5044H21.8454L26.1664 0.413485H31.0243L35.3454 13.5044H31.5101L28.6465 4.0186H28.5442L25.6806 13.5044ZM24.9647 8.33962H32.1749V10.9987H24.9647V8.33962ZM41.6431 13.5044H36.6062V0.413485H41.592C42.9386 0.413485 44.1019 0.675559 45.0821 1.19971C46.0664 1.71959 46.825 2.46959 47.3576 3.44971C47.8946 4.42556 48.163 5.5953 48.163 6.95894C48.163 8.32258 47.8967 9.49445 47.364 10.4746C46.8313 11.4504 46.0771 12.2004 45.1012 12.7246C44.1254 13.2445 42.9727 13.5044 41.6431 13.5044ZM40.1602 10.4873H41.5153C42.163 10.4873 42.7149 10.3829 43.1708 10.1741C43.6311 9.96533 43.9805 9.60525 44.2191 9.09388C44.462 8.58252 44.5835 7.87087 44.5835 6.95894C44.5835 6.04701 44.4599 5.33536 44.2127 4.824C43.9698 4.31263 43.6119 3.95255 43.1389 3.74374C42.6701 3.53493 42.0948 3.43053 41.413 3.43053H40.1602V10.4873ZM62.029 5.32258H58.4239C58.3983 5.02428 58.3301 4.75368 58.2193 4.51079C58.1128 4.26789 57.9636 4.05908 57.7719 3.88437C57.5844 3.70539 57.3564 3.56902 57.0879 3.47527C56.8194 3.37726 56.5148 3.32826 56.1739 3.32826C55.5773 3.32826 55.0723 3.47314 54.6589 3.76292C54.2498 4.05269 53.9388 4.46817 53.7257 5.00937C53.5169 5.55056 53.4125 6.20042 53.4125 6.95894C53.4125 7.76008 53.519 8.43124 53.7321 8.97243C53.9494 9.50937 54.2626 9.9142 54.6717 10.1869C55.0808 10.4554 55.573 10.5896 56.1483 10.5896C56.4764 10.5896 56.7704 10.5491 57.0304 10.4682C57.2903 10.3829 57.5162 10.2615 57.7079 10.1038C57.8997 9.94616 58.0552 9.75653 58.1746 9.53493C58.2981 9.30908 58.3812 9.05553 58.4239 8.77428L62.029 8.79985C61.9864 9.35383 61.8308 9.91846 61.5623 10.4937C61.2939 11.0648 60.9125 11.5932 60.4182 12.079C59.9281 12.5605 59.3209 12.9483 58.5964 13.2423C57.872 13.5364 57.0304 13.6834 56.0716 13.6834C54.8699 13.6834 53.7917 13.4256 52.8372 12.9099C51.8869 12.3943 51.1348 11.6358 50.5808 10.6344C50.0311 9.63295 49.7562 8.4078 49.7562 6.95894C49.7562 5.50155 50.0375 4.27428 50.6 3.27712C51.1625 2.2757 51.921 1.51931 52.8756 1.00795C53.8301 0.49232 54.8954 0.234508 56.0716 0.234508C56.8983 0.234508 57.6589 0.347434 58.3535 0.573286C59.0481 0.799138 59.6575 1.12939 60.1817 1.56405C60.7058 1.99445 61.1277 2.52499 61.4473 3.15567C61.7669 3.78635 61.9608 4.50866 62.029 5.32258ZM76.3232 6.95894C76.3232 8.41633 76.0398 9.64573 75.473 10.6472C74.9063 11.6443 74.1414 12.4007 73.1783 12.9163C72.2152 13.4277 71.1414 13.6834 69.9567 13.6834C68.7635 13.6834 67.6854 13.4256 66.7223 12.9099C65.7635 12.39 65.0007 11.6315 64.434 10.6344C63.8715 9.63295 63.5902 8.4078 63.5902 6.95894C63.5902 5.50155 63.8715 4.27428 64.434 3.27712C65.0007 2.2757 65.7635 1.51931 66.7223 1.00795C67.6854 0.49232 68.7635 0.234508 69.9567 0.234508C71.1414 0.234508 72.2152 0.49232 73.1783 1.00795C74.1414 1.51931 74.9063 2.2757 75.473 3.27712C76.0398 4.27428 76.3232 5.50155 76.3232 6.95894ZM72.6669 6.95894C72.6669 6.17485 72.5625 5.51434 72.3537 4.97741C72.1492 4.43621 71.8445 4.02712 71.4397 3.75013C71.0391 3.46888 70.5448 3.32826 69.9567 3.32826C69.3686 3.32826 68.8722 3.46888 68.4674 3.75013C68.0668 4.02712 67.7621 4.43621 67.5533 4.97741C67.3487 5.51434 67.2465 6.17485 67.2465 6.95894C67.2465 7.74303 67.3487 8.40567 67.5533 8.94687C67.7621 9.4838 68.0668 9.89289 68.4674 10.1741C68.8722 10.4511 69.3686 10.5896 69.9567 10.5896C70.5448 10.5896 71.0391 10.4511 71.4397 10.1741C71.8445 9.89289 72.1492 9.4838 72.3537 8.94687C72.5625 8.40567 72.6669 7.74303 72.6669 6.95894ZM89.2942 0.413485V13.5044H86.3283L81.5982 6.62655H81.5215V13.5044H77.9675V0.413485H80.9846L85.638 7.26576H85.7403V0.413485H89.2942ZM94.2992 13.5044L90.4384 0.413485H94.4015L96.1913 8.46746H96.2935L98.4157 0.413485H101.535L103.657 8.49303H103.759L105.549 0.413485H109.512L105.651 13.5044H102.251L100.026 6.19189H99.9242L97.6998 13.5044H94.2992ZM110.663 13.5044V0.413485H120.098V3.27712H114.217V5.52712H119.612V8.39076H114.217V10.6408H120.072V13.5044H110.663ZM121.86 13.5044V0.413485H131.295V3.27712H125.414V5.52712H130.809V8.39076H125.414V10.6408H131.269V13.5044H121.86ZM133.057 13.5044V0.413485H138.708C139.68 0.413485 140.53 0.590332 141.258 0.944025C141.987 1.29772 142.554 1.80695 142.959 2.47172C143.363 3.1365 143.566 3.93337 143.566 4.86235C143.566 5.79985 143.357 6.59033 142.939 7.2338C142.526 7.87726 141.944 8.36306 141.194 8.69118C140.449 9.01931 139.577 9.18337 138.58 9.18337H135.205V6.42201H137.864C138.282 6.42201 138.638 6.37087 138.932 6.2686C139.23 6.16206 139.458 5.99374 139.616 5.76363C139.778 5.53351 139.859 5.23309 139.859 4.86235C139.859 4.48735 139.778 4.18266 139.616 3.94829C139.458 3.70965 139.23 3.53493 138.932 3.42414C138.638 3.30908 138.282 3.25155 137.864 3.25155H136.611V13.5044H133.057ZM140.728 7.49587L144.001 13.5044H140.14L136.944 7.49587H140.728Z" fill="black"/>
<path d="M0.799561 13.5044V0.413485H4.35354V10.6408H9.64615V13.5044H0.799561ZM11.0828 13.5044V0.413485H20.5174V3.27712H14.6367V5.52712H20.0316V8.39076H14.6367V10.6408H20.4919V13.5044H11.0828ZM25.6806 13.5044H21.8454L26.1664 0.413485H31.0243L35.3454 13.5044H31.5101L28.6465 4.0186H28.5442L25.6806 13.5044ZM24.9647 8.33962H32.1749V10.9987H24.9647V8.33962ZM41.6431 13.5044H36.6062V0.413485H41.592C42.9386 0.413485 44.1019 0.675559 45.0821 1.19971C46.0664 1.71959 46.825 2.46959 47.3576 3.44971C47.8946 4.42556 48.163 5.5953 48.163 6.95894C48.163 8.32258 47.8967 9.49445 47.364 10.4746C46.8313 11.4504 46.0771 12.2004 45.1012 12.7246C44.1254 13.2445 42.9727 13.5044 41.6431 13.5044ZM40.1602 10.4873H41.5153C42.163 10.4873 42.7149 10.3829 43.1708 10.1741C43.6311 9.96533 43.9805 9.60525 44.2191 9.09388C44.462 8.58252 44.5835 7.87087 44.5835 6.95894C44.5835 6.04701 44.4599 5.33536 44.2127 4.824C43.9698 4.31263 43.6119 3.95255 43.1389 3.74374C42.6701 3.53493 42.0948 3.43053 41.413 3.43053H40.1602V10.4873ZM62.029 5.32258H58.4239C58.3983 5.02428 58.3301 4.75368 58.2193 4.51079C58.1128 4.26789 57.9636 4.05908 57.7719 3.88437C57.5844 3.70539 57.3564 3.56902 57.0879 3.47527C56.8194 3.37726 56.5148 3.32826 56.1739 3.32826C55.5773 3.32826 55.0723 3.47314 54.6589 3.76292C54.2498 4.05269 53.9388 4.46817 53.7257 5.00937C53.5169 5.55056 53.4125 6.20042 53.4125 6.95894C53.4125 7.76008 53.519 8.43124 53.7321 8.97243C53.9494 9.50937 54.2626 9.9142 54.6717 10.1869C55.0808 10.4554 55.573 10.5896 56.1483 10.5896C56.4764 10.5896 56.7704 10.5491 57.0304 10.4682C57.2903 10.3829 57.5162 10.2615 57.7079 10.1038C57.8997 9.94616 58.0552 9.75653 58.1746 9.53493C58.2981 9.30908 58.3812 9.05553 58.4239 8.77428L62.029 8.79985C61.9864 9.35383 61.8308 9.91846 61.5623 10.4937C61.2939 11.0648 60.9125 11.5932 60.4182 12.079C59.9281 12.5605 59.3209 12.9483 58.5964 13.2423C57.872 13.5364 57.0304 13.6834 56.0716 13.6834C54.8699 13.6834 53.7917 13.4256 52.8372 12.9099C51.8869 12.3943 51.1348 11.6358 50.5808 10.6344C50.0311 9.63295 49.7562 8.4078 49.7562 6.95894C49.7562 5.50155 50.0375 4.27428 50.6 3.27712C51.1625 2.2757 51.921 1.51931 52.8756 1.00795C53.8301 0.49232 54.8954 0.234508 56.0716 0.234508C56.8983 0.234508 57.6589 0.347434 58.3535 0.573286C59.0481 0.799138 59.6575 1.12939 60.1817 1.56405C60.7058 1.99445 61.1277 2.52499 61.4473 3.15567C61.7669 3.78635 61.9608 4.50866 62.029 5.32258ZM76.3232 6.95894C76.3232 8.41633 76.0398 9.64573 75.473 10.6472C74.9063 11.6443 74.1414 12.4007 73.1783 12.9163C72.2152 13.4277 71.1414 13.6834 69.9567 13.6834C68.7635 13.6834 67.6854 13.4256 66.7223 12.9099C65.7635 12.39 65.0007 11.6315 64.434 10.6344C63.8715 9.63295 63.5902 8.4078 63.5902 6.95894C63.5902 5.50155 63.8715 4.27428 64.434 3.27712C65.0007 2.2757 65.7635 1.51931 66.7223 1.00795C67.6854 0.49232 68.7635 0.234508 69.9567 0.234508C71.1414 0.234508 72.2152 0.49232 73.1783 1.00795C74.1414 1.51931 74.9063 2.2757 75.473 3.27712C76.0398 4.27428 76.3232 5.50155 76.3232 6.95894ZM72.6669 6.95894C72.6669 6.17485 72.5625 5.51434 72.3537 4.97741C72.1492 4.43621 71.8445 4.02712 71.4397 3.75013C71.0391 3.46888 70.5448 3.32826 69.9567 3.32826C69.3686 3.32826 68.8722 3.46888 68.4674 3.75013C68.0668 4.02712 67.7621 4.43621 67.5533 4.97741C67.3487 5.51434 67.2465 6.17485 67.2465 6.95894C67.2465 7.74303 67.3487 8.40567 67.5533 8.94687C67.7621 9.4838 68.0668 9.89289 68.4674 10.1741C68.8722 10.4511 69.3686 10.5896 69.9567 10.5896C70.5448 10.5896 71.0391 10.4511 71.4397 10.1741C71.8445 9.89289 72.1492 9.4838 72.3537 8.94687C72.5625 8.40567 72.6669 7.74303 72.6669 6.95894ZM89.2942 0.413485V13.5044H86.3283L81.5982 6.62655H81.5215V13.5044H77.9675V0.413485H80.9846L85.638 7.26576H85.7403V0.413485H89.2942ZM94.2992 13.5044L90.4384 0.413485H94.4015L96.1913 8.46746H96.2935L98.4157 0.413485H101.535L103.657 8.49303H103.759L105.549 0.413485H109.512L105.651 13.5044H102.251L100.026 6.19189H99.9242L97.6998 13.5044H94.2992ZM110.663 13.5044V0.413485H120.098V3.27712H114.217V5.52712H119.612V8.39076H114.217V10.6408H120.072V13.5044H110.663ZM121.86 13.5044V0.413485H131.295V3.27712H125.414V5.52712H130.809V8.39076H125.414V10.6408H131.269V13.5044H121.86ZM133.057 13.5044V0.413485H138.708C139.68 0.413485 140.53 0.590332 141.258 0.944025C141.987 1.29772 142.554 1.80695 142.959 2.47172C143.363 3.1365 143.566 3.93337 143.566 4.86235C143.566 5.79985 143.357 6.59033 142.939 7.2338C142.526 7.87726 141.944 8.36306 141.194 8.69118C140.449 9.01931 139.577 9.18337 138.58 9.18337H135.205V6.42201H137.864C138.282 6.42201 138.638 6.37087 138.932 6.2686C139.23 6.16206 139.458 5.99374 139.616 5.76363C139.778 5.53351 139.859 5.23309 139.859 4.86235C139.859 4.48735 139.778 4.18266 139.616 3.94829C139.458 3.70965 139.23 3.53493 138.932 3.42414C138.638 3.30908 138.282 3.25155 137.864 3.25155H136.611V13.5044H133.057ZM140.728 7.49587L144.001 13.5044H140.14L136.944 7.49587H140.728Z" fill="url(#paint0_linear_574_259)"/>
<defs>
<linearGradient id="paint0_linear_574_259" x1="6.44644" y1="2.58168" x2="17.5018" y2="41.8163" gradientUnits="userSpaceOnUse">
<stop stop-color="#EF4336"/>
<stop offset="1" stop-color="#F9993E"/>
</linearGradient>
</defs>
</svg>
