<svg width="160" height="27" viewBox="0 0 160 27" fill="none" xmlns="http://www.w3.org/2000/svg">
<path d="M5.70606 26V2.96L8.22606 5.48H0.666063V0.799998H11.5381V26H5.70606ZM26.7157 26.432C24.6517 26.432 22.8037 25.928 21.1717 24.92C19.5397 23.888 18.2557 22.4 17.3197 20.456C16.3837 18.512 15.9157 16.16 15.9157 13.4C15.9157 10.64 16.3837 8.288 17.3197 6.344C18.2557 4.4 19.5397 2.924 21.1717 1.916C22.8037 0.883999 24.6517 0.368 26.7157 0.368C28.8037 0.368 30.6517 0.883999 32.2597 1.916C33.8917 2.924 35.1757 4.4 36.1117 6.344C37.0477 8.288 37.5157 10.64 37.5157 13.4C37.5157 16.16 37.0477 18.512 36.1117 20.456C35.1757 22.4 33.8917 23.888 32.2597 24.92C30.6517 25.928 28.8037 26.432 26.7157 26.432ZM26.7157 21.5C27.6997 21.5 28.5517 21.224 29.2717 20.672C30.0157 20.12 30.5917 19.244 30.9997 18.044C31.4317 16.844 31.6477 15.296 31.6477 13.4C31.6477 11.504 31.4317 9.956 30.9997 8.756C30.5917 7.556 30.0157 6.68 29.2717 6.128C28.5517 5.576 27.6997 5.3 26.7157 5.3C25.7557 5.3 24.9037 5.576 24.1597 6.128C23.4397 6.68 22.8637 7.556 22.4317 8.756C22.0237 9.956 21.8197 11.504 21.8197 13.4C21.8197 15.296 22.0237 16.844 22.4317 18.044C22.8637 19.244 23.4397 20.12 24.1597 20.672C24.9037 21.224 25.7557 21.5 26.7157 21.5ZM61.3446 26.432C59.2806 26.432 57.4326 25.928 55.8006 24.92C54.1686 23.888 52.8846 22.4 51.9486 20.456C51.0126 18.512 50.5446 16.16 50.5446 13.4C50.5446 10.64 51.0126 8.288 51.9486 6.344C52.8846 4.4 54.1686 2.924 55.8006 1.916C57.4326 0.883999 59.2806 0.368 61.3446 0.368C63.4326 0.368 65.2806 0.883999 66.8886 1.916C68.5206 2.924 69.8046 4.4 70.7406 6.344C71.6766 8.288 72.1446 10.64 72.1446 13.4C72.1446 16.16 71.6766 18.512 70.7406 20.456C69.8046 22.4 68.5206 23.888 66.8886 24.92C65.2806 25.928 63.4326 26.432 61.3446 26.432ZM61.3446 21.5C62.3286 21.5 63.1806 21.224 63.9006 20.672C64.6446 20.12 65.2206 19.244 65.6286 18.044C66.0606 16.844 66.2766 15.296 66.2766 13.4C66.2766 11.504 66.0606 9.956 65.6286 8.756C65.2206 7.556 64.6446 6.68 63.9006 6.128C63.1806 5.576 62.3286 5.3 61.3446 5.3C60.3846 5.3 59.5326 5.576 58.7886 6.128C58.0686 6.68 57.4926 7.556 57.0606 8.756C56.6526 9.956 56.4486 11.504 56.4486 13.4C56.4486 15.296 56.6526 16.844 57.0606 18.044C57.4926 19.244 58.0686 20.12 58.7886 20.672C59.5326 21.224 60.3846 21.5 61.3446 21.5ZM85.7782 26.432C83.7142 26.432 81.8662 25.928 80.2342 24.92C78.6022 23.888 77.3182 22.4 76.3822 20.456C75.4462 18.512 74.9782 16.16 74.9782 13.4C74.9782 10.64 75.4462 8.288 76.3822 6.344C77.3182 4.4 78.6022 2.924 80.2342 1.916C81.8662 0.883999 83.7142 0.368 85.7782 0.368C87.8662 0.368 89.7142 0.883999 91.3222 1.916C92.9542 2.924 94.2382 4.4 95.1742 6.344C96.1102 8.288 96.5782 10.64 96.5782 13.4C96.5782 16.16 96.1102 18.512 95.1742 20.456C94.2382 22.4 92.9542 23.888 91.3222 24.92C89.7142 25.928 87.8662 26.432 85.7782 26.432ZM85.7782 21.5C86.7622 21.5 87.6142 21.224 88.3342 20.672C89.0782 20.12 89.6542 19.244 90.0622 18.044C90.4942 16.844 90.7102 15.296 90.7102 13.4C90.7102 11.504 90.4942 9.956 90.0622 8.756C89.6542 7.556 89.0782 6.68 88.3342 6.128C87.6142 5.576 86.7622 5.3 85.7782 5.3C84.8182 5.3 83.9662 5.576 83.2222 6.128C82.5022 6.68 81.9262 7.556 81.4942 8.756C81.0862 9.956 80.8822 11.504 80.8822 13.4C80.8822 15.296 81.0862 16.844 81.4942 18.044C81.9262 19.244 82.5022 20.12 83.2222 20.672C83.9662 21.224 84.8182 21.5 85.7782 21.5ZM110.212 26.432C108.148 26.432 106.3 25.928 104.668 24.92C103.036 23.888 101.752 22.4 100.816 20.456C99.8798 18.512 99.4118 16.16 99.4118 13.4C99.4118 10.64 99.8798 8.288 100.816 6.344C101.752 4.4 103.036 2.924 104.668 1.916C106.3 0.883999 108.148 0.368 110.212 0.368C112.3 0.368 114.148 0.883999 115.756 1.916C117.388 2.924 118.672 4.4 119.608 6.344C120.544 8.288 121.012 10.64 121.012 13.4C121.012 16.16 120.544 18.512 119.608 20.456C118.672 22.4 117.388 23.888 115.756 24.92C114.148 25.928 112.3 26.432 110.212 26.432ZM110.212 21.5C111.196 21.5 112.048 21.224 112.768 20.672C113.512 20.12 114.088 19.244 114.496 18.044C114.928 16.844 115.144 15.296 115.144 13.4C115.144 11.504 114.928 9.956 114.496 8.756C114.088 7.556 113.512 6.68 112.768 6.128C112.048 5.576 111.196 5.3 110.212 5.3C109.252 5.3 108.4 5.576 107.656 6.128C106.936 6.68 106.36 7.556 105.928 8.756C105.52 9.956 105.316 11.504 105.316 13.4C105.316 15.296 105.52 16.844 105.928 18.044C106.36 19.244 106.936 20.12 107.656 20.672C108.4 21.224 109.252 21.5 110.212 21.5ZM137.209 26V0.799998H148.117C151.477 0.799998 154.141 1.508 156.109 2.924C158.077 4.34 159.061 6.464 159.061 9.296C159.061 12.104 158.077 14.216 156.109 15.632C154.141 17.048 151.477 17.756 148.117 17.756H140.449L143.077 15.164V26H137.209ZM143.077 15.776L140.449 13.184H148.081C149.689 13.184 150.937 12.86 151.825 12.212C152.713 11.54 153.157 10.58 153.157 9.332C153.157 8.108 152.713 7.172 151.825 6.524C150.937 5.876 149.689 5.552 148.081 5.552H140.449L143.077 2.78V15.776ZM133.717 22.76V19.772H150.853V22.76H133.717Z" fill="url(#paint0_linear_3006_117)"/>
<defs>
<linearGradient id="paint0_linear_3006_117" x1="0" y1="13" x2="161" y2="13" gradientUnits="userSpaceOnUse">
<stop stop-color="#FF6600"/>
<stop offset="0.274" stop-color="#F26659"/>
<stop offset="0.374" stop-color="#F06177"/>
<stop offset="0.484" stop-color="#E65D97"/>
<stop offset="0.714" stop-color="#CA46D2"/>
<stop offset="1" stop-color="#8D13F9"/>
</linearGradient>
</defs>
</svg>
