<svg width="157" height="27" viewBox="0 0 157 27" fill="none" xmlns="http://www.w3.org/2000/svg">
<path d="M5.71778 26V2.96L8.23778 5.48H0.677781V0.799998H11.5498V26H5.71778ZM24.4954 26.432C22.7434 26.432 21.0034 26.204 19.2754 25.748C17.5714 25.268 16.1074 24.596 14.8834 23.732L17.1874 19.268C18.1474 19.964 19.2514 20.516 20.4994 20.924C21.7714 21.332 23.0554 21.536 24.3514 21.536C25.8154 21.536 26.9674 21.248 27.8074 20.672C28.6474 20.096 29.0674 19.292 29.0674 18.26C29.0674 17.612 28.8994 17.036 28.5634 16.532C28.2274 16.028 27.6274 15.644 26.7634 15.38C25.9234 15.116 24.7354 14.984 23.1994 14.984H16.7554L18.0514 0.799998H33.4234V5.48H20.1394L23.1634 2.816L22.2634 12.932L19.2394 10.268H24.5674C27.0634 10.268 29.0674 10.616 30.5794 11.312C32.1154 11.984 33.2314 12.908 33.9274 14.084C34.6234 15.26 34.9714 16.592 34.9714 18.08C34.9714 19.568 34.5994 20.948 33.8554 22.22C33.1114 23.468 31.9594 24.488 30.3994 25.28C28.8634 26.048 26.8954 26.432 24.4954 26.432ZM58.3329 26.432C56.2689 26.432 54.4209 25.928 52.7889 24.92C51.1569 23.888 49.8729 22.4 48.9369 20.456C48.0009 18.512 47.5329 16.16 47.5329 13.4C47.5329 10.64 48.0009 8.288 48.9369 6.344C49.8729 4.4 51.1569 2.924 52.7889 1.916C54.4209 0.883999 56.2689 0.368 58.3329 0.368C60.4209 0.368 62.2689 0.883999 63.8769 1.916C65.5089 2.924 66.7929 4.4 67.7289 6.344C68.6649 8.288 69.1329 10.64 69.1329 13.4C69.1329 16.16 68.6649 18.512 67.7289 20.456C66.7929 22.4 65.5089 23.888 63.8769 24.92C62.2689 25.928 60.4209 26.432 58.3329 26.432ZM58.3329 21.5C59.3169 21.5 60.1689 21.224 60.8889 20.672C61.6329 20.12 62.2089 19.244 62.6169 18.044C63.0489 16.844 63.2649 15.296 63.2649 13.4C63.2649 11.504 63.0489 9.956 62.6169 8.756C62.2089 7.556 61.6329 6.68 60.8889 6.128C60.1689 5.576 59.3169 5.3 58.3329 5.3C57.3729 5.3 56.5209 5.576 55.7769 6.128C55.0569 6.68 54.4809 7.556 54.0489 8.756C53.6409 9.956 53.4369 11.504 53.4369 13.4C53.4369 15.296 53.6409 16.844 54.0489 18.044C54.4809 19.244 55.0569 20.12 55.7769 20.672C56.5209 21.224 57.3729 21.5 58.3329 21.5ZM82.7665 26.432C80.7025 26.432 78.8545 25.928 77.2225 24.92C75.5905 23.888 74.3065 22.4 73.3705 20.456C72.4345 18.512 71.9665 16.16 71.9665 13.4C71.9665 10.64 72.4345 8.288 73.3705 6.344C74.3065 4.4 75.5905 2.924 77.2225 1.916C78.8545 0.883999 80.7025 0.368 82.7665 0.368C84.8545 0.368 86.7025 0.883999 88.3105 1.916C89.9425 2.924 91.2265 4.4 92.1625 6.344C93.0985 8.288 93.5665 10.64 93.5665 13.4C93.5665 16.16 93.0985 18.512 92.1625 20.456C91.2265 22.4 89.9425 23.888 88.3105 24.92C86.7025 25.928 84.8545 26.432 82.7665 26.432ZM82.7665 21.5C83.7505 21.5 84.6025 21.224 85.3225 20.672C86.0665 20.12 86.6425 19.244 87.0505 18.044C87.4825 16.844 87.6985 15.296 87.6985 13.4C87.6985 11.504 87.4825 9.956 87.0505 8.756C86.6425 7.556 86.0665 6.68 85.3225 6.128C84.6025 5.576 83.7505 5.3 82.7665 5.3C81.8065 5.3 80.9545 5.576 80.2105 6.128C79.4905 6.68 78.9145 7.556 78.4825 8.756C78.0745 9.956 77.8705 11.504 77.8705 13.4C77.8705 15.296 78.0745 16.844 78.4825 18.044C78.9145 19.244 79.4905 20.12 80.2105 20.672C80.9545 21.224 81.8065 21.5 82.7665 21.5ZM107.2 26.432C105.136 26.432 103.288 25.928 101.656 24.92C100.024 23.888 98.7401 22.4 97.8041 20.456C96.8681 18.512 96.4001 16.16 96.4001 13.4C96.4001 10.64 96.8681 8.288 97.8041 6.344C98.7401 4.4 100.024 2.924 101.656 1.916C103.288 0.883999 105.136 0.368 107.2 0.368C109.288 0.368 111.136 0.883999 112.744 1.916C114.376 2.924 115.66 4.4 116.596 6.344C117.532 8.288 118 10.64 118 13.4C118 16.16 117.532 18.512 116.596 20.456C115.66 22.4 114.376 23.888 112.744 24.92C111.136 25.928 109.288 26.432 107.2 26.432ZM107.2 21.5C108.184 21.5 109.036 21.224 109.756 20.672C110.5 20.12 111.076 19.244 111.484 18.044C111.916 16.844 112.132 15.296 112.132 13.4C112.132 11.504 111.916 9.956 111.484 8.756C111.076 7.556 110.5 6.68 109.756 6.128C109.036 5.576 108.184 5.3 107.2 5.3C106.24 5.3 105.388 5.576 104.644 6.128C103.924 6.68 103.348 7.556 102.916 8.756C102.508 9.956 102.304 11.504 102.304 13.4C102.304 15.296 102.508 16.844 102.916 18.044C103.348 19.244 103.924 20.12 104.644 20.672C105.388 21.224 106.24 21.5 107.2 21.5ZM134.197 26V0.799998H145.105C148.465 0.799998 151.129 1.508 153.097 2.924C155.065 4.34 156.049 6.464 156.049 9.296C156.049 12.104 155.065 14.216 153.097 15.632C151.129 17.048 148.465 17.756 145.105 17.756H137.437L140.065 15.164V26H134.197ZM140.065 15.776L137.437 13.184H145.069C146.677 13.184 147.925 12.86 148.813 12.212C149.701 11.54 150.145 10.58 150.145 9.332C150.145 8.108 149.701 7.172 148.813 6.524C147.925 5.876 146.677 5.552 145.069 5.552H137.437L140.065 2.78V15.776ZM130.705 22.76V19.772H147.841V22.76H130.705Z" fill="url(#paint0_linear_753_625)"/>
<defs>
<linearGradient id="paint0_linear_753_625" x1="0" y1="13" x2="158" y2="13" gradientUnits="userSpaceOnUse">
<stop stop-color="#FF6600"/>
<stop offset="0.274" stop-color="#F26659"/>
<stop offset="0.374" stop-color="#F06177"/>
<stop offset="0.484" stop-color="#E65D97"/>
<stop offset="0.714" stop-color="#CA46D2"/>
<stop offset="1" stop-color="#8D13F9"/>
</linearGradient>
</defs>
</svg>
